<?xml version="1.0" encoding="UTF-8"?>
<svg id="Layer_2" data-name="Layer 2" xmlns="http://www.w3.org/2000/svg" viewBox="0 0 501.01 500.94">
  <g id="Layer_1-2" data-name="Layer 1">
    <path d="M419.09,65.24c88.07,80.31,107.95,212.1,45.84,314.71-75.82,125.23-242.1,159.45-361.44,73.31C-10.34,371.1-34.23,209.92,51.63,98.03,140.67-18,310.59-33.7,419.09,65.24ZM240.29,13.63C127.07,18.51,31.63,104.7,15.81,216.89-6.18,372.82,125.2,506.01,281.34,486.46c103.95-13.02,188.49-95.31,204.22-198.86C508.14,139.02,390.46,7.14,240.29,13.63Z"/>
    <path d="M243.43,15.87c119.23-4.22,223.94,84.07,240.35,201.92,21.63,155.28-110.71,287.45-265.98,265.98-94.77-13.11-173.55-85-195.56-177.93C-12.24,160.22,94.66,21.14,243.43,15.87ZM240.29,23.04C58.42,30.97-41.32,241.6,68.48,387.84c98.76,131.53,300.98,118.03,381.37-25.21C537.65,206.17,418.5,15.27,240.29,23.04Z"/>
    <path d="M243.97,52.05l.7,265.01-207.78-.09c-1.45-4.43-2.72-8.93-3.79-13.47-21.43-90.5,14.18-183.94,90.12-236.58C225.91-4.25,366.34,22.37,436.23,125c38.18,56.06,48.73,127.42,28.78,192.49h-121.06c-.16-.69.28-.98.54-1.48,2.87-5.51,7.55-11.36,10.75-17.05,11.9-21.21,23-50.69,20.04-75.35-3.21-26.73-23.25-50.04-42.53-67.32-24.02-21.52-55.11-38.55-67.27-69.93-4.22-10.9-8.24-22.64-9.41-34.31h-12.11Z"/>
    <path d="M256.74,317.49l-.23-166.09c.16-1.06,15.14,1.37,16.69,1.67,47.03,9.18,92.73,51.49,86.38,102.7-1.99,16.04-10.43,34.95-18.24,49.01-2.37,4.26-5.03,8.85-7.92,12.7h-76.67Z"/>
    <path d="M387.89,427.79c-25.58,20.58-56.98,35.07-89.14,42.01-64.28,13.86-133.57-.97-184.81-42.01h273.95Z"/>
    <path d="M417.49,400.44c-6.91,8.33-15.01,15.71-23.33,22.62l-286.14.15c-6.92-5.92-14.77-12.3-20.76-19.18-.37-.43-2.77-3.28-2.46-3.59,9.77.64,19.81-.49,29.72.09,3.37,3.94,5.94,6.98,10.49,9.68,29.68,17.62,71.77,7.22,100.43-7.9.65-.34,2.23-1.88,2.6-1.88h189.44Z"/>
    <path d="M330.95,321.52l-3.14,6.27c1.81-.13,6.06,1.65,7.53.8.64-.37,3.7-5.69,4.71-6.49.57-.46,1.18-.51,1.88-.58,12.08-1.31,27.16.61,39.44.47l81.85-.02c-1.27,4.54-2.93,9.07-4.72,13.43-.56,1.36-3.28,8.19-4.09,8.46l-198.33-.38v-21.3l.67-.67h74.21Z"/>
    <path d="M438.56,373.09c-4.97,8.08-10.91,15.55-16.91,22.87-28.67.1-57.35-.15-86.02-.03-1.38,0-2.61.49-3.99.49-32.66.13-65.33-.14-97.99-.03,7.39-7.29,17-13.26,21.07-23.31h183.83Z"/>
    <path d="M452.46,347.98l-10.76,20.62h-184.95c-.14,0-.34.57-.67.45v-21.07h196.39Z"/>
    <path d="M244.86,321.52v14.8c-3.31-1.16-6.37-3.11-9.75-4.37-28.8-10.77-60.49-1.13-86.9,11.52l-101.23.04c-2.49-6.24-6.34-13.39-8.07-19.83-.23-.87-.41-1.7-.3-2.61.16-.22.57.45.67.45h205.58Z"/>
    <path d="M140.39,347.53c.17.72-.25.92-.66,1.36-3.38,3.65-9.17,7.5-13.02,11.18-2.76,2.64-5.26,5.5-7.85,8.31-19.33,1.06-38.8.85-58.14.39l-11.78-20.56,91.45-.67Z"/>
    <path d="M115.28,373.09c-1.69,3.82-3.85,7.57-4.03,11.89-.16,3.89,1.35,7.63,1.79,11.42h-32.51c-6.1-7.5-12.18-15.08-17.26-23.32h52.01Z"/>
  </g>
</svg>