<?xml version="1.0" encoding="UTF-8"?>
<svg id="Layer_2" data-name="Layer 2" xmlns="http://www.w3.org/2000/svg" viewBox="0 0 501.01 500.94">
  <defs>
    <style>
      .cls-1 {
        fill: #fff;
      }
    </style>
  </defs>
  <g id="Layer_1-2" data-name="Layer 1">
    <path d="M419.09,65.24c88.07,80.31,107.95,212.1,45.84,314.71-75.82,125.23-242.1,159.45-361.44,73.31C-10.34,371.1-34.23,209.92,51.63,98.03,140.67-18,310.59-33.7,419.09,65.24ZM240.29,13.63C127.07,18.51,31.63,104.7,15.81,216.89-6.18,372.82,125.2,506.01,281.34,486.46c103.95-13.02,188.49-95.31,204.22-198.86C508.14,139.02,390.46,7.14,240.29,13.63Z"/>
    <path class="cls-1" d="M240.29,13.63c150.17-6.48,267.85,125.4,245.28,273.97-15.74,103.55-100.27,185.85-204.22,198.86C125.2,506.01-6.18,372.82,15.81,216.89,31.63,104.7,127.07,18.51,240.29,13.63ZM243.43,15.87C94.66,21.14-12.24,160.22,22.24,305.84c22.01,92.93,100.79,164.83,195.56,177.93,155.27,21.47,287.61-110.7,265.98-265.98C467.36,99.93,362.65,11.65,243.43,15.87Z"/>
    <path d="M243.43,15.87c119.23-4.22,223.94,84.07,240.35,201.92,21.63,155.28-110.71,287.45-265.98,265.98-94.77-13.11-173.55-85-195.56-177.93C-12.24,160.22,94.66,21.14,243.43,15.87ZM240.29,23.04C58.42,30.97-41.32,241.6,68.48,387.84c98.76,131.53,300.98,118.03,381.37-25.21C537.65,206.17,418.5,15.27,240.29,23.04Z"/>
    <path class="cls-1" d="M240.29,23.04c178.22-7.77,297.37,183.13,209.56,339.58-80.39,143.24-282.61,156.74-381.37,25.21C-41.32,241.6,58.42,30.97,240.29,23.04ZM243.97,52.05h12.11c1.17,11.67,5.18,23.41,9.41,34.31,12.16,31.38,43.25,48.41,67.27,69.93,19.29,17.28,39.33,40.58,42.53,67.32,2.96,24.66-8.15,54.14-20.04,75.35-3.19,5.69-7.87,11.54-10.75,17.05-.26.5-.7.79-.54,1.48h121.06c19.95-65.07,9.41-136.43-28.78-192.49C366.34,22.37,225.91-4.25,123.21,66.93,47.27,119.57,11.66,213.01,33.09,303.51c1.08,4.54,2.34,9.04,3.79,13.47l207.78.09-.7-265.01ZM256.74,317.49h76.67c2.89-3.85,5.55-8.44,7.92-12.7,7.82-14.06,16.25-32.97,18.24-49.01,6.35-51.21-39.35-93.52-86.38-102.7-1.55-.3-16.53-2.72-16.69-1.67l.23,166.09ZM244.86,321.52H39.29c-.1,0-.51-.67-.67-.45-.11.9.07,1.74.3,2.61,1.73,6.43,5.57,13.59,8.07,19.83l101.23-.04c26.41-12.64,58.1-22.29,86.9-11.52,3.38,1.27,6.44,3.21,9.75,4.37v-14.8ZM330.95,321.52h-74.21l-.67.67v21.3l198.33.38c.81-.28,3.53-7.1,4.09-8.46,1.79-4.36,3.45-8.89,4.72-13.43l-81.85.02c-12.28.14-27.36-1.78-39.44-.47-.7.08-1.31.13-1.88.58-1,.8-4.07,6.12-4.71,6.49-1.47.85-5.71-.93-7.53-.8l3.14-6.27ZM140.39,347.53l-91.45.67,11.78,20.56c19.34.46,38.82.67,58.14-.39,2.58-2.81,5.08-5.67,7.85-8.31,3.86-3.68,9.64-7.53,13.02-11.18.41-.44.82-.64.66-1.36ZM452.46,347.98h-196.39v21.07c.33.12.54-.45.67-.45h184.95l10.76-20.62ZM115.28,373.09h-52.01c5.09,8.24,11.16,15.82,17.26,23.32h32.51c-.44-3.79-1.96-7.53-1.79-11.42.18-4.32,2.35-8.07,4.03-11.89ZM438.56,373.09h-183.83c-4.07,10.05-13.68,16.02-21.07,23.31,32.66-.11,65.33.16,97.99.03,1.38,0,2.61-.49,3.99-.49,28.67-.12,57.35.13,86.02.03,5.99-7.33,11.94-14.8,16.91-22.87ZM417.49,400.44h-189.44c-.37,0-1.95,1.54-2.6,1.88-28.66,15.12-70.75,25.51-100.43,7.9-4.55-2.7-7.12-5.74-10.49-9.68-9.91-.59-19.95.54-29.72-.09-.32.31,2.08,3.16,2.46,3.59,5.99,6.88,13.83,13.26,20.76,19.18l286.14-.15c8.32-6.92,16.42-14.3,23.33-22.62ZM387.89,427.79H113.94c51.24,41.04,120.54,55.87,184.81,42.01,32.16-6.94,63.56-21.43,89.14-42.01Z"/>
    <path d="M243.97,52.05l.7,265.01-207.78-.09c-1.45-4.43-2.72-8.93-3.79-13.47-21.43-90.5,14.18-183.94,90.12-236.58C225.91-4.25,366.34,22.37,436.23,125c38.18,56.06,48.73,127.42,28.78,192.49h-121.06c-.16-.69.28-.98.54-1.48,2.87-5.51,7.55-11.36,10.75-17.05,11.9-21.21,23-50.69,20.04-75.35-3.21-26.73-23.25-50.04-42.53-67.32-24.02-21.52-55.11-38.55-67.27-69.93-4.22-10.9-8.24-22.64-9.41-34.31h-12.11Z"/>
    <path d="M256.74,317.49l-.23-166.09c.16-1.06,15.14,1.37,16.69,1.67,47.03,9.18,92.73,51.49,86.38,102.7-1.99,16.04-10.43,34.95-18.24,49.01-2.37,4.26-5.03,8.85-7.92,12.7h-76.67Z"/>
    <path d="M387.89,427.79c-25.58,20.58-56.98,35.07-89.14,42.01-64.28,13.86-133.57-.97-184.81-42.01h273.95Z"/>
    <path d="M417.49,400.44c-6.91,8.33-15.01,15.71-23.33,22.62l-286.14.15c-6.92-5.92-14.77-12.3-20.76-19.18-.37-.43-2.77-3.28-2.46-3.59,9.77.64,19.81-.49,29.72.09,3.37,3.94,5.94,6.98,10.49,9.68,29.68,17.62,71.77,7.22,100.43-7.9.65-.34,2.23-1.88,2.6-1.88h189.44Z"/>
    <path d="M330.95,321.52l-3.14,6.27c1.81-.13,6.06,1.65,7.53.8.64-.37,3.7-5.69,4.71-6.49.57-.46,1.18-.51,1.88-.58,12.08-1.31,27.16.61,39.44.47l81.85-.02c-1.27,4.54-2.93,9.07-4.72,13.43-.56,1.36-3.28,8.19-4.09,8.46l-198.33-.38v-21.3l.67-.67h74.21Z"/>
    <path d="M438.56,373.09c-4.97,8.08-10.91,15.55-16.91,22.87-28.67.1-57.35-.15-86.02-.03-1.38,0-2.61.49-3.99.49-32.66.13-65.33-.14-97.99-.03,7.39-7.29,17-13.26,21.07-23.31h183.83Z"/>
    <path d="M452.46,347.98l-10.76,20.62h-184.95c-.14,0-.34.57-.67.45v-21.07h196.39Z"/>
    <path d="M244.86,321.52v14.8c-3.31-1.16-6.37-3.11-9.75-4.37-28.8-10.77-60.49-1.13-86.9,11.52l-101.23.04c-2.49-6.24-6.34-13.39-8.07-19.83-.23-.87-.41-1.7-.3-2.61.16-.22.57.45.67.45h205.58Z"/>
    <path d="M140.39,347.53c.17.72-.25.92-.66,1.36-3.38,3.65-9.17,7.5-13.02,11.18-2.76,2.64-5.26,5.5-7.85,8.31-19.33,1.06-38.8.85-58.14.39l-11.78-20.56,91.45-.67Z"/>
    <path d="M115.28,373.09c-1.69,3.82-3.85,7.57-4.03,11.89-.16,3.89,1.35,7.63,1.79,11.42h-32.51c-6.1-7.5-12.18-15.08-17.26-23.32h52.01Z"/>
  </g>
</svg>