<?xml version="1.0" encoding="UTF-8"?>
<svg id="Layer_2" data-name="Layer 2" xmlns="http://www.w3.org/2000/svg" viewBox="0 0 474.95 474.98">
  <defs>
    <style>
      .cls-1 {
        fill: #fff;
      }
    </style>
  </defs>
  <g id="Layer_1-2" data-name="Layer 1">
    <path d="M226.89.23c150.17-6.48,267.85,125.4,245.28,273.97-15.74,103.55-100.27,185.85-204.22,198.86C111.8,492.62-19.58,359.42,2.41,203.5,18.24,91.3,113.67,5.12,226.89.23ZM230.03,2.47C81.26,7.74-25.64,146.83,8.85,292.44c22.01,92.93,100.79,164.83,195.56,177.93,155.27,21.47,287.61-110.7,265.98-265.98C453.97,86.54,349.26-1.75,230.03,2.47Z"/>
    <path d="M226.89,9.65c178.22-7.77,297.37,183.13,209.56,339.58-80.39,143.24-282.61,156.74-381.37,25.21C-54.71,228.21,45.03,17.57,226.89,9.65ZM230.57,38.66h12.11c1.17,11.67,5.18,23.41,9.41,34.31,12.16,31.38,43.25,48.41,67.27,69.93,19.29,17.28,39.33,40.58,42.53,67.32,2.96,24.66-8.15,54.14-20.04,75.35-3.19,5.69-7.87,11.54-10.75,17.05-.26.5-.7.79-.54,1.48h121.06c19.95-65.07,9.41-136.43-28.78-192.49C352.95,8.98,212.51-17.64,109.82,53.54,33.88,106.17-1.74,199.61,19.69,290.11c1.08,4.54,2.34,9.04,3.79,13.47l207.78.09-.7-265.01ZM243.35,304.09h76.67c2.89-3.85,5.55-8.44,7.92-12.7,7.82-14.06,16.25-32.97,18.24-49.01,6.35-51.21-39.35-93.52-86.38-102.7-1.55-.3-16.53-2.72-16.69-1.67l.23,166.09ZM231.47,308.13H25.89c-.1,0-.51-.67-.67-.45-.11.9.07,1.74.3,2.61,1.73,6.43,5.57,13.59,8.07,19.83l101.23-.04c26.41-12.64,58.1-22.29,86.9-11.52,3.38,1.27,6.44,3.21,9.75,4.37v-14.8ZM317.55,308.13h-74.21l-.67.67v21.3l198.33.38c.81-.28,3.53-7.1,4.09-8.46,1.79-4.36,3.45-8.89,4.72-13.43l-81.85.02c-12.28.14-27.36-1.78-39.44-.47-.7.08-1.31.13-1.88.58-1,.8-4.07,6.12-4.71,6.49-1.47.85-5.71-.93-7.53-.8l3.14-6.27ZM126.99,334.13l-91.45.67,11.78,20.56c19.34.46,38.82.67,58.14-.39,2.58-2.81,5.08-5.67,7.85-8.31,3.86-3.68,9.64-7.53,13.02-11.18.41-.44.82-.64.66-1.36ZM439.06,334.58h-196.39v21.07c.33.12.54-.45.67-.45h184.95l10.76-20.62ZM101.89,359.69h-52.01c5.09,8.24,11.16,15.82,17.26,23.32h32.51c-.44-3.79-1.96-7.53-1.79-11.42.18-4.32,2.35-8.07,4.03-11.89ZM425.16,359.69h-183.83c-4.07,10.05-13.68,16.02-21.07,23.31,32.66-.11,65.33.16,97.99.03,1.38,0,2.61-.49,3.99-.49,28.67-.12,57.35.13,86.02.03,5.99-7.33,11.94-14.8,16.91-22.87ZM404.09,387.04h-189.44c-.37,0-1.95,1.54-2.6,1.88-28.66,15.12-70.75,25.51-100.43,7.9-4.55-2.7-7.12-5.74-10.49-9.68-9.91-.59-19.95.54-29.72-.09-.32.31,2.08,3.16,2.46,3.59,5.99,6.88,13.83,13.26,20.76,19.18l286.14-.15c8.32-6.92,16.42-14.3,23.33-22.62ZM374.5,414.39H100.54c51.24,41.04,120.54,55.87,184.81,42.01,32.16-6.94,63.56-21.43,89.14-42.01Z"/>
  </g>
</svg>